<svg xmlns="http://www.w3.org/2000/svg" xmlns:xlink="http://www.w3.org/1999/xlink" width="1200" height="1200" viewBox="0 0 1200 1200">
  <defs>
    <clipPath id="clip-e_1">
      <rect width="1200" height="1200"/>
    </clipPath>
  </defs>
  <g id="e_1" data-name="e* – 1" clip-path="url(#clip-e_1)">
    <g id="Gruppe_2" data-name="Gruppe 2" transform="translate(-367.331 -2330.972)">
      <g id="Gruppe_1687" data-name="Gruppe 1687" transform="translate(1104.881 2630.138)">
        <path id="Pfad_72" data-name="Pfad 72" d="M411.569,202.288H504.19l-46.606-79.8,32.626-18.647,46.015,79.815,46.023-79.815,32.627,18.647-46.031,79.8h92.047v37.286H568.844l46.031,79.807-32.627,18.647-46.023-79.815-46.015,79.815L457.584,319.38l46.606-79.807H411.569Zm156.7.591-32.044-18.639-31.453,18.639v36.113l31.453,18.639,32.044-18.639Z" transform="translate(-411.569 -103.842)" fill="#9c3"/>
      </g>
      <g id="Gruppe_1688" data-name="Gruppe 1688" transform="translate(580.459 2798.84)">
        <g id="Gruppe_47" data-name="Gruppe 47" transform="translate(0 0)">
          <path id="Pfad_58" data-name="Pfad 58" d="M575.453,613.223H478.321c-123.471,0-169.574-24.692-169.574-120.178V466.707H775.469V419.793c0-149.82-91.371-181.919-218.123-181.919H443.74c-100.425,0-205.776,17.284-205.776,169.562v91.371c0,154.747,105.352,172.031,197.546,172.031H563.919c124.588,0,202.661-25.868,210.75-110.173H701.146C689.753,604.534,652.327,613.223,575.453,613.223ZM453.617,295.487H557.346c115.228,0,147.339,42.811,147.339,85.61v27.984H308.747C315.331,313.594,341.669,295.487,453.617,295.487Z" transform="translate(-237.964 -237.873)" fill="#9c3"/>
        </g>
      </g>
    </g>
  </g>
</svg>
